<?xml version="1.0" encoding="utf-8"?><svg viewBox="0 0 30 25" xmlns="http://www.w3.org/2000/svg" xmlns:xlink="http://www.w3.org/1999/xlink"><style>:root>svg{display:none}:root>svg:target{display:block}</style><svg fill="none" viewBox="0 0 11 14" id="about-us" xmlns="http://www.w3.org/2000/svg"><path d="M5 1.01v.5h1v-.5H5zM6 1V.5H5V1h1zm0 12.01v-9.5H5v9.5h1zm0-12V1H5v.01h1zm-4 3.5h3.5v-1H2v1zm-2 9h11v-1H0v1z" fill="#686868"/></svg><svg fill="none" viewBox="0 0 14 14" id="armchair" xmlns="http://www.w3.org/2000/svg"><path d="M13.942 5.35a1.95 1.95 0 00-1.47-1.417c-.058-.013-.116-.01-.174-.018A5.025 5.025 0 007.389 0h-.777a5.026 5.026 0 00-4.909 3.916c-.372.047-.727.189-1.018.436C.25 4.722 0 5.262 0 5.833c0 .608.293 1.183.778 1.548v3.508c0 .573.315 1.07.778 1.34v.604a1.168 1.168 0 002.333 0v-.389h6.223v.39a1.168 1.168 0 002.333 0v-.606a1.55 1.55 0 00.778-1.34V7.382a1.945 1.945 0 00.72-2.03zM6.612.779h.777a4.25 4.25 0 014.123 3.198 1.928 1.928 0 00-.682.347c-.457.372-.719.922-.719 1.51v1.945H3.89V5.916c0-.908-.59-1.7-1.4-1.942A4.25 4.25 0 016.61.778zm4.277 8.166a.39.39 0 01-.389.39h-7a.39.39 0 010-.778h7a.39.39 0 01.389.388zm-7.778 3.89a.39.39 0 01-.778 0v-.39h.778v.39zm8.556 0a.39.39 0 01-.778 0v-.39h.778v.39zm.97-5.997a.389.389 0 00-.193.336v3.716a.779.779 0 01-.777.778H2.333a.779.779 0 01-.777-.778V7.173a.39.39 0 00-.194-.336 1.154 1.154 0 01-.584-1.004 1.166 1.166 0 011.365-1.15c.552.09.968.62.968 1.233V7.85a1.165 1.165 0 00-.778 1.095c0 .644.524 1.167 1.167 1.167h7a1.165 1.165 0 00.389-2.262V5.833c0-.353.157-.683.432-.906.278-.226.63-.309.991-.233.421.088.772.426.873.841a1.157 1.157 0 01-.547 1.302z" fill="#686868"/></svg><svg fill="none" viewBox="0 0 8 12" id="arrow" xmlns="http://www.w3.org/2000/svg"><path d="M6 2L2 6l4 4" stroke="#C9C9C7" stroke-width="2" stroke-linecap="square"/></svg><svg fill="none" viewBox="0 0 10 6" id="arrow-down" xmlns="http://www.w3.org/2000/svg"><path d="M1 1l4 4 4-4" stroke="#686868" stroke-linecap="square"/></svg><svg fill="none" viewBox="0 0 8 12" id="arrow-white" xmlns="http://www.w3.org/2000/svg"><path d="M6 2L2 6l4 4" stroke="#fff" stroke-width="2" stroke-linecap="square"/></svg><svg fill="none" viewBox="0 0 17 20" id="bag" xmlns="http://www.w3.org/2000/svg"><path d="M2.008 8.572l-.497-.055.497.055zm-1 9l.497.056-.497-.056zm15.111 0l-.497.056.497-.056zm-1-9l.497-.055-.497.055zM1.511 8.517l-1 9 .994.11 1-9-.994-.11zM2.286 19.5h12.556v-1H2.286v1zm14.33-1.983l-1-9-.994.11 1 9 .994-.11zM13.842 6.93H3.286v1h10.556v-1zm1.774 1.588a1.786 1.786 0 00-1.774-1.588v1c.4 0 .736.3.78.699l.994-.11zM14.842 19.5a1.786 1.786 0 001.774-1.983l-.994.11a.786.786 0 01-.78.873v1zM.511 17.517A1.786 1.786 0 002.285 19.5v-1a.786.786 0 01-.781-.872l-.994-.11zm1.993-8.89a.786.786 0 01.78-.698v-1c-.909 0-1.673.684-1.774 1.588l.994.11zM5.207 5.5v-.643h-1V5.5h1zm6.714-.643V5.5h1v-.643h-1zM8.564 1.5a3.357 3.357 0 013.357 3.357h1A4.357 4.357 0 008.564.5v1zM5.207 4.857A3.357 3.357 0 018.564 1.5v-1a4.357 4.357 0 00-4.357 4.357h1z" fill="#000"/></svg><svg fill="none" viewBox="0 0 17 20" id="bag-filled" xmlns="http://www.w3.org/2000/svg"><path d="M1.008 17.572l1-9A1.286 1.286 0 013.286 7.43h10.556c.655 0 1.205.492 1.277 1.143l1 9A1.286 1.286 0 0114.842 19H2.286a1.286 1.286 0 01-1.278-1.428z" fill="#000"/><path d="M2.008 8.572l-.497-.055.497.055zm-1 9l.497.056-.497-.056zm15.111 0l-.497.056.497-.056zm-1-9l.497-.055-.497.055zM1.511 8.517l-1 9 .994.11 1-9-.994-.11zM2.286 19.5h12.556v-1H2.286v1zm14.33-1.983l-1-9-.994.11 1 9 .994-.11zM13.842 6.93H3.286v1h10.556v-1zm1.774 1.588a1.786 1.786 0 00-1.774-1.588v1c.4 0 .736.3.78.699l.994-.11zM14.842 19.5a1.786 1.786 0 001.774-1.983l-.994.11a.786.786 0 01-.78.873v1zM.511 17.517A1.786 1.786 0 002.285 19.5v-1a.786.786 0 01-.781-.872l-.994-.11zm1.993-8.89a.786.786 0 01.78-.698v-1c-.909 0-1.673.684-1.774 1.588l.994.11zM5.207 5.5v-.643h-1V5.5h1zm6.714-.643V5.5h1v-.643h-1zM8.564 1.5a3.357 3.357 0 013.357 3.357h1A4.357 4.357 0 008.564.5v1zM5.207 4.857A3.357 3.357 0 018.564 1.5v-1a4.357 4.357 0 00-4.357 4.357h1z" fill="#000"/></svg><svg fill="none" viewBox="0 0 28 23" id="bedroom-icon" xmlns="http://www.w3.org/2000/svg"><path d="M28 12.648a2.43 2.43 0 00-1.323-2.178c-.832-.426-1.909-.642-3.201-.642H9.425a2.81 2.81 0 00-.662-1.337L6.771 6.276c-.493-.548-1.202-.88-1.995-.937l-.358-.025a1.408 1.408 0 00-.548.072v-1.17c0-.41-.173-.781-.45-1.044.28-.335.45-.767.45-1.237A1.937 1.937 0 001.935 0 1.937 1.937 0 000 1.935c0 .47.169.902.449 1.237A1.435 1.435 0 000 4.215v17.456c0 .302.245.547.547.547h1.887a.547.547 0 00.545-.495c.065-.689.43-2.58 1.331-3.428h1.465a.547.547 0 000-1.094H1.094v-4.815h7.3v1.425c0 .843.685 1.53 1.528 1.53h16.549c.147 0 .294-.022.435-.064v1.924h-3.013H10.587a.547.547 0 100 1.094H23.69c.898.845 1.265 2.738 1.331 3.428.027.28.262.495.545.495h1.887a.547.547 0 00.547-.547v-9.023zM3.871 7.174c.008-.233-.024-.473.168-.645.193-.172.425-.116.66-.099.516.037.952.236 1.259.578L7.95 9.223c.323.359.478.859.436 1.409-.016.211-.012.399-.19.548-.163.136-.34.11-.536.105-.55-.017-1.032-.223-1.355-.582L4.313 8.488c-.323-.359-.459-.838-.442-1.314zm-2.777 4.119V4.215c0-.19.155-.345.345-.345h.991c.19 0 .346.155.346.345v7.077H1.094zM3.87 9.63l1.495 1.662H3.87V9.63zM1.935 1.094a.842.842 0 010 1.682.842.842 0 010-1.682zm.023 20.03h-.864v-2.83h1.834c-.592.97-.86 2.168-.97 2.83zm7.964-6.877a.436.436 0 01-.435-.436v-2.889h13.989c1.117 0 2.027.176 2.703.521.449.23.727.691.727 1.205v1.163c0 .24-.195.436-.435.436H9.922zm16.12 6.877c-.11-.662-.378-1.86-.97-2.83h1.834v2.83h-.864z" fill="#000"/><path d="M8.686 17.539a.552.552 0 00-.714-.296.551.551 0 00-.296.714c.114.275.439.41.714.296a.552.552 0 00.296-.714z" fill="#000"/></svg><svg fill="none" viewBox="0 0 27 25" id="cashback" xmlns="http://www.w3.org/2000/svg"><path d="M13.556 11.894c-1.328 0-2.408-.965-2.408-2.15 0-1.186 1.08-2.15 2.408-2.15 1.328 0 2.41.964 2.41 2.15 0 .431.346.781.774.781.428 0 .775-.35.775-.781 0-1.8-1.371-3.302-3.184-3.642V4.345a.778.778 0 00-.775-.782.778.778 0 00-.774.782v1.757c-1.813.34-3.184 1.842-3.184 3.642 0 2.047 1.776 3.713 3.958 3.713 1.329 0 2.41.965 2.41 2.15 0 1.187-1.081 2.152-2.41 2.152-1.47 0-2.565-.787-2.79-2.004a.775.775 0 10-1.523.287c.319 1.726 1.7 2.953 3.539 3.223v1.39c0 .432.347.782.774.782.428 0 .775-.35.775-.782V19.25c1.813-.338 3.184-1.842 3.184-3.641 0-2.048-1.777-3.714-3.959-3.714z" fill="#000"/><path d="M19.774 22.317a.771.771 0 00-1.056-.294c-4.223 2.419-9.575 1.685-13.014-1.785-3.263-3.293-4.006-8.179-2.231-12.2l1.136 1.146a.77.77 0 00.844.17.782.782 0 00.478-.722V4.21a.818.818 0 00-.015-.153c-.005-.023-.013-.045-.02-.067-.007-.027-.014-.053-.024-.079-.011-.026-.026-.05-.04-.075-.01-.02-.019-.04-.031-.06a.787.787 0 00-.215-.217c-.019-.012-.038-.02-.057-.03-.025-.015-.05-.03-.077-.042-.025-.01-.05-.016-.075-.023-.023-.007-.045-.016-.07-.021a.793.793 0 00-.148-.015H.775a.775.775 0 00-.716.481.786.786 0 00.168.852l2.084 2.103C-.031 11.555.733 17.43 4.609 21.34A12.357 12.357 0 0013.39 25c2.09 0 4.19-.53 6.092-1.619a.783.783 0 00.291-1.064zM26.517 20.238l-2.084-2.103c2.341-4.69 1.578-10.566-2.298-14.477-3.93-3.965-10.045-4.803-14.874-2.04a.786.786 0 00-.292 1.065.771.771 0 001.057.295C12.25.56 17.602 1.294 21.04 4.763c3.263 3.293 4.005 8.18 2.231 12.2l-1.136-1.147a.77.77 0 00-.844-.17.782.782 0 00-.478.723v4.42c0 .052.006.103.015.154.005.023.013.045.02.067.008.027.014.053.024.079.01.027.026.05.04.076.01.02.019.04.031.058a.78.78 0 00.215.217c.019.012.038.02.057.032.026.014.05.029.076.04.026.01.052.016.078.024.022.007.044.015.067.02.05.01.1.015.152.015h4.381c.314 0 .596-.19.716-.482a.785.785 0 00-.168-.851z" fill="#000"/></svg><svg fill="none" viewBox="0 0 19 11" id="catalog-sort" xmlns="http://www.w3.org/2000/svg"><path fill-rule="evenodd" clip-rule="evenodd" d="M.667 1.222H19V0H.667v1.222zm11 4.89H19V4.888h-7.333V6.11zM8 11h11V9.778H8V11z" fill="#000"/></svg><svg fill="none" viewBox="0 0 23 22" id="childrensroom-icon" xmlns="http://www.w3.org/2000/svg"><path d="M22.772 18.326a.644.644 0 00-.908-.012l-.002.002-.002-.002.004-.003c-.002.002-.079.073-.24.19V8.461a.644.644 0 10-1.288 0V9.1c-2.301-.053-3.486-.384-4.635-.705-1.06-.297-2.061-.577-3.744-.577-1.683 0-2.685.28-3.745.577-1.148.321-2.333.652-4.634.705V5.883c0-2.312 1.054-3.887 2.968-4.434a4.122 4.122 0 014.62 1.764c-.234.116-.433.24-.595.373l-.736-.736a.645.645 0 10-.912.911l.833.833-.833.834a.645.645 0 10.912.911l.736-.736c.222.181.512.347.87.497.609.256 1.334.428 1.805.428a1.936 1.936 0 001.934-1.934 1.936 1.936 0 00-1.934-1.933 3.86 3.86 0 00-.84.115A5.41 5.41 0 006.192.21C3.712.918 2.29 2.986 2.29 5.883v12.618a2.68 2.68 0 01-.24-.19l.004.003-.001.002-.002-.002a.645.645 0 00-.9.923c.056.056.787.752 2.49 1.428C5.346 21.343 8.019 22 11.958 22c3.938 0 6.612-.657 8.316-1.335 1.704-.676 2.435-1.372 2.491-1.428a.644.644 0 00.008-.911zM12.108 4.21c.46-.17.921-.26 1.138-.26a.645.645 0 010 1.289c-.217 0-.677-.09-1.138-.26-.4-.15-.624-.294-.733-.385.109-.09.334-.235.733-.384zm-8.53 6.178c2.486-.055 3.807-.424 4.982-.753 1.014-.284 1.89-.529 3.397-.529 1.506 0 2.382.245 3.397.53 1.175.328 2.495.697 4.982.752v6.452H3.578v-6.452zm0 7.741h16.758v1.104c-2.451 1.127-5.66 1.474-8.38 1.474-2.719 0-5.927-.347-8.378-1.474V18.13z" fill="#000"/><path d="M6.8 15.551a.645.645 0 00.645-.644v-2.578a.644.644 0 10-1.29 0v2.578c0 .356.29.644.645.644zM9.378 15.551a.645.645 0 00.645-.644v-2.578a.644.644 0 10-1.29 0v2.578c0 .356.29.644.645.644zM11.956 15.551a.645.645 0 00.645-.644v-2.578a.644.644 0 10-1.29 0v2.578c0 .356.29.644.645.644zM14.534 15.551a.645.645 0 00.645-.644v-2.578a.644.644 0 10-1.29 0v2.578c0 .356.29.644.646.644zM17.113 15.551a.644.644 0 00.644-.644v-2.578a.644.644 0 10-1.289 0v2.578c0 .356.289.644.645.644z" fill="#000"/></svg><svg fill="none" viewBox="0 0 22 22" id="closet-icon" xmlns="http://www.w3.org/2000/svg"><path d="M21.27 0H.645a.645.645 0 000 1.29h.042v20.066a.645.645 0 001.29 0v-.387h17.96v.386a.645.645 0 001.29 0V1.29h.043a.645.645 0 100-1.289zm-9.668 13.363h8.335v2.492h-8.335v-2.492zm8.335-1.289h-8.335V9.582h8.335v2.492zm-9.625 7.606H6.79V1.29h3.524v18.39zM1.977 1.29H5.5v18.39H1.977V1.29zm9.625 18.39v-2.535h8.335v2.535h-8.335zm8.335-11.387h-8.335V1.289h8.335v7.004z" fill="#000"/><path d="M8.55 11.645a.644.644 0 100-1.29.644.644 0 000 1.29zM3.738 11.645a.645.645 0 100-1.29.645.645 0 000 1.29z" fill="#000"/></svg><svg fill="none" viewBox="0 0 16 16" id="contacts" xmlns="http://www.w3.org/2000/svg"><path d="M11 8a3 3 0 11-6 0 3 3 0 016 0zm0 0v1a2 2 0 104 0V8a7 7 0 10-3 5.745" stroke="#686868"/></svg><svg fill="none" viewBox="0 0 12 14" id="cupboard" xmlns="http://www.w3.org/2000/svg"><path d="M10.527 13.098H1.23c-.678 0-1.23-.552-1.23-1.23V1.23C0 .552.552 0 1.23 0h9.297c.679 0 1.23.552 1.23 1.23v10.637c0 .679-.551 1.23-1.23 1.23zM1.23.82a.41.41 0 00-.41.41v10.637c0 .226.184.41.41.41h9.297a.41.41 0 00.41-.41V1.23a.41.41 0 00-.41-.41H1.23z" fill="#686868"/><path d="M2.379 14a.41.41 0 01-.41-.41v-.902a.41.41 0 01.82 0v.902a.41.41 0 01-.41.41zM9.379 14a.41.41 0 01-.41-.41v-.902a.41.41 0 01.82 0v.902a.41.41 0 01-.41.41zM5.879 13.098a.41.41 0 01-.41-.41V.41a.41.41 0 01.82 0v12.277a.41.41 0 01-.41.41z" fill="#686868"/><path d="M11.348 9.598h-5.47a.41.41 0 010-.82h5.47a.41.41 0 010 .82zM8.941 11.375h-.656a.41.41 0 110-.82h.656a.41.41 0 110 .82zM4.129 6.973a.41.41 0 01-.41-.41v-.657a.41.41 0 01.82 0v.657a.41.41 0 01-.41.41zM7.629 6.973a.41.41 0 01-.41-.41v-.657a.41.41 0 01.82 0v.657a.41.41 0 01-.41.41z" fill="#686868"/></svg><svg fill="none" viewBox="0 0 29 18" id="delivery-icon" xmlns="http://www.w3.org/2000/svg"><path d="M7.854 14.958H5.438a.604.604 0 010-1.208h2.416a.604.604 0 010 1.208zM27.49 14.958h-1.51a.604.604 0 010-1.208h1.008l.815-4.34c-.011-2.221-1.908-4.118-4.24-4.118h-3.967l-1.923 8.458h3.473a.604.604 0 010 1.208h-4.23a.605.605 0 01-.589-.737l2.197-9.666a.604.604 0 01.59-.472h4.448A5.444 5.444 0 0129 9.521l-.917 4.944a.603.603 0 01-.593.493z" fill="#fff"/><path d="M23.563 17.375a3.024 3.024 0 01-3.021-3.02 3.024 3.024 0 013.02-3.022 3.024 3.024 0 013.021 3.021 3.024 3.024 0 01-3.02 3.021zm0-4.833c-1 0-1.813.813-1.813 1.812 0 1 .813 1.813 1.813 1.813.999 0 1.812-.814 1.812-1.813 0-1-.813-1.812-1.813-1.812zM10.27 17.375a3.024 3.024 0 01-3.02-3.02 3.024 3.024 0 013.02-3.022 3.024 3.024 0 013.022 3.021 3.024 3.024 0 01-3.021 3.021zm0-4.833c-.998 0-1.812.813-1.812 1.812 0 1 .814 1.813 1.813 1.813 1 0 1.812-.814 1.812-1.813 0-1-.813-1.812-1.812-1.812zM7.854 4.083H3.021a.604.604 0 010-1.208h4.833a.604.604 0 010 1.208zM7.854 7.708H1.813a.604.604 0 010-1.208h6.041a.604.604 0 010 1.208zM7.854 11.333H.604a.604.604 0 010-1.208h7.25a.604.604 0 010 1.208z" fill="#fff"/><path d="M16.917 14.958h-4.23a.604.604 0 010-1.208h3.748L19.18 1.667H5.438a.604.604 0 010-1.209h14.5a.605.605 0 01.59.737l-3.022 13.292a.605.605 0 01-.59.471z" fill="#fff"/></svg><svg fill="none" viewBox="0 0 15 15" id="empty-star" xmlns="http://www.w3.org/2000/svg"><path d="M7.948.279a.5.5 0 00-.896 0L5.005 4.426l-4.577.665a.5.5 0 00-.277.853l3.312 3.228-.782 4.559a.5.5 0 00.725.527L7.5 12.105l4.094 2.153a.5.5 0 00.725-.527l-.782-4.56 3.312-3.227a.5.5 0 00-.277-.853l-4.577-.665L7.948.28z" fill="#D1D1D1"/></svg><svg fill="none" viewBox="0 0 3 16" id="etc" xmlns="http://www.w3.org/2000/svg"><path d="M1.636 2.273a.636.636 0 110-1.273.636.636 0 010 1.273zM1.636 8.636a.636.636 0 110-1.272.636.636 0 010 1.272zM1.636 15a.636.636 0 110-1.273.636.636 0 010 1.273z" stroke="#000"/></svg><svg fill="none" viewBox="0 0 15 15" id="filled-star" xmlns="http://www.w3.org/2000/svg"><path d="M7.948.279a.5.5 0 00-.896 0L5.005 4.426l-4.577.665a.5.5 0 00-.277.853l3.312 3.228-.782 4.559a.5.5 0 00.725.527L7.5 12.105l4.094 2.153a.5.5 0 00.725-.527l-.782-4.56 3.312-3.227a.5.5 0 00-.277-.853l-4.577-.665L7.948.28z" fill="#000"/></svg><svg fill="none" viewBox="0 0 16 16" id="home" xmlns="http://www.w3.org/2000/svg"><path fill-rule="evenodd" clip-rule="evenodd" d="M8 1L1 7v7a1 1 0 001 1h4v-3a2 2 0 114 0v3h4a1 1 0 001-1V7L8 1z" fill="#414141"/><path d="M8 1l.325-.38a.5.5 0 00-.65 0L8 1zM1 7l-.325-.38-.175.15V7H1zm5 8v.5a.5.5 0 00.5-.5H6zm4 0h-.5a.5.5 0 00.5.5V15zm5-8h.5v-.23l-.175-.15L15 7zM2 15.5h4v-1H2v1zm13.325-8.88l-7-6-.65.76 7 6 .65-.76zm-7.65-6l-7 6 .65.76 7-6-.65-.76zM6.5 15v-3h-1v3h1zm3-3v3h1v-3h-1zm.5 3.5h4v-1h-4v1zm5.5-1.5V7h-1v7h1zM.5 7v7h1V7h-1zM8 10.5A1.5 1.5 0 019.5 12h1A2.5 2.5 0 008 9.5v1zm0-1A2.5 2.5 0 005.5 12h1A1.5 1.5 0 018 10.5v-1zm6 6a1.5 1.5 0 001.5-1.5h-1a.5.5 0 01-.5.5v1zm-12-1a.5.5 0 01-.5-.5h-1A1.5 1.5 0 002 15.5v-1z" fill="#fff"/></svg><svg fill="none" viewBox="0 0 17 17" id="inst" xmlns="http://www.w3.org/2000/svg"><path d="M12.25 4.214h1.071M5.286 1h6.428A4.286 4.286 0 0116 5.286v6.428A4.286 4.286 0 0111.714 16H5.286A4.286 4.286 0 011 11.714V5.286A4.286 4.286 0 015.286 1zM8.5 11.714a3.214 3.214 0 110-6.428 3.214 3.214 0 010 6.428z" stroke="#000"/></svg><svg fill="none" viewBox="0 0 23 23" id="kitchen-icon" xmlns="http://www.w3.org/2000/svg"><path d="M11.5 0v12.938H0V23h23V0H11.5zm0 21.563H1.437v-7.188H11.5v7.188zm10.063 0h-8.625V7.188h8.624v14.375zm0-15.813h-8.625V1.437h8.624V5.75z" fill="#000"/><path d="M10.063 4.734L8.624 3.296V0H7.187v3.891L8.626 5.33v.421h-5.75v-.421L4.313 3.89V0H2.875v3.296L1.437 4.734v2.454h8.626V4.733zM8.625 15.813H4.312v1.437h4.313v-1.438zM15.813 2.875h-1.438v1.438h1.438V2.875zM15.813 10.063h-1.438v4.312h1.438v-4.313zM2.875 8.625H1.437v1.438h1.438V8.624zM6.469 8.625H5.03v1.438H6.47V8.624zM10.063 8.625H8.624v1.438h1.438V8.624z" fill="#000"/></svg><svg fill="none" viewBox="0 0 30 23" id="livingroom-icon" xmlns="http://www.w3.org/2000/svg"><path d="M29.531 15.938h-1.406v-2.813h.938a.469.469 0 00.462-.546l-.47-2.812a.469.469 0 00-.461-.392h-1.875a.469.469 0 00-.462.392l-.47 2.812a.469.469 0 00.463.546h.938v2.813h-1.875a.393.393 0 00-.047.009 2.347 2.347 0 00-2.297-1.884h-.938v-1.407c0-.776-.63-1.406-1.406-1.406h-3.75c-.777 0-1.406.63-1.406 1.406v1.406h-.938v-1.406c0-.776-.63-1.406-1.406-1.406h-3.75c-.777 0-1.406.63-1.406 1.406v1.406H7.03a2.347 2.347 0 00-2.297 1.885.392.392 0 00-.046-.01H2.813v-2.812h.937a.469.469 0 00.462-.546l-.469-2.812a.469.469 0 00-.462-.392H1.406a.469.469 0 00-.462.392l-.469 2.812a.469.469 0 00.463.546h.937v2.813H.469a.469.469 0 00-.469.468v5.157c0 .258.21.468.469.468H29.53c.26 0 .469-.21.469-.468v-5.157a.469.469 0 00-.469-.468zm-28.04-3.75l.312-1.876h1.081l.312 1.876H1.491zm2.728 8.906H.937v-4.219H4.22v4.219zm12.187-8.438c0-.259.21-.469.469-.469h3.75c.259 0 .469.21.469.47v1.405h-4.688v-1.406zm-7.5 0c0-.259.21-.469.469-.469h3.75c.259 0 .469.21.469.47v1.405H8.906v-1.406zm15.469 8.438H5.625v-1.407h18.75v1.407zm0-2.344H5.625v-2.344c0-.776.63-1.406 1.406-1.406H22.97c.776 0 1.406.63 1.406 1.406v2.344zm2.429-6.563l.312-1.874h1.08l.313 1.874h-1.705zm2.259 8.907H25.78v-4.219h3.282v4.219zM9.375 8.438h10.313c.258 0 .468-.21.468-.47v-7.5A.469.469 0 0019.688 0H9.374a.469.469 0 00-.469.469v7.5c0 .259.21.468.469.468zm.469-7.5h9.375v4.756l-1.04-1.3a.47.47 0 00-.698-.039L15.937 5.9l-2.95-2.95a.469.469 0 00-.635-.025l-2.508 2.15V.937zm0 5.37l2.787-2.39 2.975 2.974c.183.183.48.183.663 0l1.505-1.504 1.445 1.808V7.5H9.844V6.309z" fill="#000"/><path d="M16.406 4.219a1.406 1.406 0 100-2.813 1.406 1.406 0 000 2.813zm0-1.875a.469.469 0 110 .937.469.469 0 010-.937z" fill="#000"/></svg><svg fill="none" viewBox="0 0 18 16" id="mail" xmlns="http://www.w3.org/2000/svg"><path d="M1 4.5l8.167 4.667L17.333 4.5M2.167 1h14c.644 0 1.166.522 1.166 1.167v11.666c0 .645-.522 1.167-1.166 1.167h-14A1.167 1.167 0 011 13.833V2.167C1 1.522 1.522 1 2.167 1z" stroke="#000"/></svg><svg fill="none" viewBox="0 0 20 14" id="mattress" xmlns="http://www.w3.org/2000/svg"><path d="M17.5 0H1.59A1.593 1.593 0 000 1.59v10.82A1.593 1.593 0 001.59 14H17.5a1.592 1.592 0 001.59-1.59V1.59A1.593 1.593 0 0017.5 0zm0 13.364H1.59a.955.955 0 01-.954-.955v-.319c.275.207.61.32.955.32h1.273v-.637H1.59a.955.955 0 01-.955-.955V10.5c.275.207.61.32.955.32H17.5c.344 0 .68-.113.954-.32v.32a.955.955 0 01-.954.954h-5.09v.636h5.09c.344 0 .68-.112.954-.319v.32a.955.955 0 01-.954.954zm.954-4.137a.955.955 0 01-.954.955H1.59a.956.956 0 01-.954-.955V1.591a.956.956 0 01.955-.955H17.5a.955.955 0 01.954.955v7.636z" fill="#686868"/><path d="M3.5 11.773h.636v.636H3.5v-.636zM11.136 11.773h.637v.636h-.637v-.636zM3.5 2.227v-.636h-.636v.636a.319.319 0 01-.319.318H1.91v.637h.636a.319.319 0 01.319.318v1.273a.319.319 0 01-.319.318H1.91v.636h.636a.319.319 0 01.319.318v1.273a.319.319 0 01-.319.318H1.91v.637h.636a.319.319 0 01.319.318v.636H3.5v-.636a.319.319 0 01.318-.318h.637v-.637h-.637a.319.319 0 01-.318-.318V6.045a.319.319 0 01.318-.318h.637v-.636h-.637a.319.319 0 01-.318-.318V3.5a.319.319 0 01.318-.318h.637v-.637h-.637a.319.319 0 01-.318-.318zM6.682 2.227v-.636h-.637v.636a.318.318 0 01-.318.318h-.636v.637h.636a.319.319 0 01.318.318v1.273a.319.319 0 01-.318.318h-.636v.636h.636a.319.319 0 01.318.318v1.273a.318.318 0 01-.318.318h-.636v.637h.636a.319.319 0 01.318.318v.636h.637v-.636A.319.319 0 017 8.273h.636v-.637H7a.319.319 0 01-.318-.318V6.045A.319.319 0 017 5.727h.636v-.636H7a.319.319 0 01-.318-.318V3.5A.319.319 0 017 3.182h.636v-.637H7a.319.319 0 01-.318-.318zM9.864 2.227v-.636h-.637v.636a.319.319 0 01-.318.318h-.636v.637h.636a.319.319 0 01.318.318v1.273a.319.319 0 01-.318.318h-.636v.636h.636a.319.319 0 01.318.318v1.273a.319.319 0 01-.318.318h-.636v.637h.636a.319.319 0 01.318.318v.636h.637v-.636a.319.319 0 01.318-.318h.636v-.637h-.636a.319.319 0 01-.318-.318V6.045a.319.319 0 01.318-.318h.636v-.636h-.636a.319.319 0 01-.318-.318V3.5a.319.319 0 01.318-.318h.636v-.637h-.636a.319.319 0 01-.318-.318zM13.046 2.227v-.636h-.637v.636a.319.319 0 01-.318.318h-.636v.637h.636a.319.319 0 01.318.318v1.273a.319.319 0 01-.318.318h-.636v.636h.636a.319.319 0 01.318.318v1.273a.319.319 0 01-.318.318h-.636v.637h.636a.319.319 0 01.318.318v.636h.636v-.636a.318.318 0 01.319-.318H14v-.637h-.636a.318.318 0 01-.319-.318V6.045a.318.318 0 01.319-.318H14v-.636h-.636a.318.318 0 01-.319-.318V3.5a.318.318 0 01.319-.318H14v-.637h-.636a.318.318 0 01-.319-.318zM16.227 2.227v-.636h-.636v.636a.318.318 0 01-.318.318h-.637v.637h.637a.318.318 0 01.318.318v1.273a.318.318 0 01-.318.318h-.637v.636h.637a.318.318 0 01.318.318v1.273a.318.318 0 01-.318.318h-.637v.637h.637a.318.318 0 01.318.318v.636h.636v-.636a.318.318 0 01.319-.318h.636v-.637h-.636a.318.318 0 01-.319-.318V6.045a.318.318 0 01.319-.318h.636v-.636h-.636a.318.318 0 01-.319-.318V3.5a.318.318 0 01.319-.318h.636v-.637h-.636a.318.318 0 01-.319-.318z" fill="#686868"/></svg><svg fill="none" viewBox="0 0 20 13" id="menu-icon" xmlns="http://www.w3.org/2000/svg"><path d="M0 1h20M0 12h20M0 6.5h20" stroke="#000"/></svg><svg fill="none" viewBox="0 0 15 14" id="new-product" xmlns="http://www.w3.org/2000/svg"><path fill-rule="evenodd" clip-rule="evenodd" d="M13.195 5.958l.01.007C13.578 6.24 14 6.552 14 7c0 .449-.423.76-.795 1.035-.216.157-.485.356-.52.487.012.253.083.5.207.72l.005.012c.188.433.38.876.163 1.25-.22.379-.714.434-1.19.488-.248.001-.49.059-.712.168-.11.222-.167.465-.17.712-.053.477-.115.975-.49 1.19-.375.217-.826.022-1.262-.168a1.643 1.643 0 00-.715-.21c-.127.033-.32.295-.478.509l-.009.012C7.76 13.579 7.449 14 7 14c-.449 0-.76-.422-1.034-.794v-.001c-.158-.216-.356-.485-.487-.52a1.672 1.672 0 00-.72.207l-.01.005c-.434.188-.878.382-1.253.163-.378-.22-.434-.713-.487-1.19a1.62 1.62 0 00-.17-.714 1.622 1.622 0 00-.71-.17c-.478-.05-.973-.111-1.191-.487-.218-.375-.022-.827.168-1.263a1.63 1.63 0 00.21-.714c-.033-.127-.296-.322-.51-.48l-.01-.007C.422 7.761 0 7.45 0 7c0-.449.422-.76.795-1.035.215-.157.485-.355.52-.487a1.629 1.629 0 00-.21-.716C.913 4.326.72 3.874.94 3.496s.713-.434 1.19-.487c.246-.001.489-.058.71-.167.11-.221.167-.465.169-.712.053-.48.116-.976.49-1.193.375-.216.826-.024 1.265.169.22.123.463.194.714.21.128-.033.32-.295.478-.509l.01-.012C6.24.421 6.55 0 7 0c.447 0 .757.418 1.033.79l.004.005c.158.215.355.485.487.52.251-.014.496-.086.714-.21.436-.192.889-.385 1.267-.165.378.22.433.714.487 1.19 0 .248.059.493.169.715.221.11.464.168.711.17.477.05.973.11 1.19.486.218.376.022.828-.167 1.263a1.629 1.629 0 00-.21.714c.032.128.296.322.51.48zM4.93 8.4a.304.304 0 00.547-.182V5.783a.304.304 0 00-.608 0v1.522L3.59 5.6a.304.304 0 00-.548.183v2.435a.304.304 0 00.61 0V6.696L4.93 8.4zm2.678.122H6.392a.304.304 0 01-.305-.304V5.783c0-.168.136-.305.305-.305h1.217a.304.304 0 010 .61h-.913v.608h.913a.304.304 0 010 .609h-.913v.608h.913a.304.304 0 010 .61zm2.754-.208a.304.304 0 00.29.208h.012a.304.304 0 00.283-.23l.61-2.435a.305.305 0 00-.592-.148l-.355 1.421-.278-.835a.318.318 0 00-.578 0l-.278.835-.355-1.42a.305.305 0 00-.59.147L9.14 8.29a.304.304 0 00.284.23.291.291 0 00.3-.207l.32-.96.32.96z" fill="#FFC107"/></svg><svg fill="none" viewBox="0 0 23 22" id="office-icon" xmlns="http://www.w3.org/2000/svg"><path d="M22.313 10.398h-.992c.22-.38.347-.82.347-1.289V7.176a.645.645 0 00-.645-.645h-1.22c.371-1.73 2.132-2.677 2.162-2.693a.645.645 0 00-.593-1.145 6.374 6.374 0 00-1.638 1.302V1.977a.645.645 0 00-1.289 0v2.018a6.372 6.372 0 00-1.637-1.302.645.645 0 10-.592 1.145c.02.01 1.791.946 2.162 2.693h-1.222a.645.645 0 00-.644.645v1.933c0 .47.126.91.347 1.29h-5.793l-.644-1.29h2.867a.645.645 0 00.645-.644V.645A.645.645 0 0013.289 0H2.891a.645.645 0 00-.645.645v7.82c0 .356.289.644.645.644h2.867l-.645 1.29H1.602a.645.645 0 000 1.289h.644v9.667a.645.645 0 001.29 0v-1.933h9.109v1.933c0 .356.288.645.644.645h7.734a.645.645 0 00.645-.645v-9.668h.645a.644.644 0 100-1.289zM17.8 9.11V7.82h2.578v1.29a1.29 1.29 0 01-1.29 1.288 1.29 1.29 0 01-1.288-1.289zM3.535 1.29h9.11V7.82h-9.11V1.29zM7.2 9.11h1.782l.644 1.29h-3.07l.644-1.29zm-3.664 9.024v-6.445h9.11v6.445h-9.11zm10.399-1.29h6.445v3.868h-6.445v-3.867zm6.445-1.288h-6.445v-3.867h6.445v3.867z" fill="#000"/><path d="M17.156 14.266a.645.645 0 100-1.29.645.645 0 000 1.29zM17.156 19.422a.645.645 0 100-1.29.645.645 0 000 1.29z" fill="#000"/></svg><svg fill="none" viewBox="0 0 19 19" id="phone" xmlns="http://www.w3.org/2000/svg"><path d="M6.123 1H3.43A2.429 2.429 0 001 3.429v2.428C1 12.563 6.437 18 13.143 18h2.428A2.429 2.429 0 0018 15.571v-1.678c0-.46-.26-.88-.671-1.086l-2.934-1.467a1.214 1.214 0 00-1.695.703l-.361 1.084a1.469 1.469 0 01-1.682.976 7.343 7.343 0 01-5.76-5.76 1.469 1.469 0 01.976-1.682l1.346-.448c.602-.2.948-.831.794-1.447L7.301 1.92C7.166 1.38 6.681 1 6.123 1z" stroke="#fff"/></svg><svg fill="none" viewBox="0 0 24 24" id="present" xmlns="http://www.w3.org/2000/svg"><path d="M21.429 12H2.57m18.858 0c.867 0 1.571-.704 1.571-1.571V8.857c0-.868-.704-1.571-1.571-1.571H2.57C1.704 7.286 1 7.989 1 8.857v1.572C1 11.296 1.704 12 2.571 12m18.858 0v7.857A3.143 3.143 0 0118.286 23H5.714a3.143 3.143 0 01-3.143-3.143V12M12 7.286V5.714m0 1.572H6.837a2.694 2.694 0 01-2.694-2.694v-.45A3.143 3.143 0 017.286 1 4.714 4.714 0 0112 5.714m0 1.572h5.163a2.694 2.694 0 002.694-2.694v-.45A3.143 3.143 0 0016.714 1 4.714 4.714 0 0012 5.714m0 1.572V23" stroke="#000" stroke-width="1.3"/></svg><svg fill="none" viewBox="0 0 15 20" id="profile-icon" xmlns="http://www.w3.org/2000/svg"><path clip-rule="evenodd" d="M11.292 4.857a3.858 3.858 0 01-3.86 3.857 3.858 3.858 0 110-7.714 3.858 3.858 0 013.86 3.857zM13.866 19H1v-2.57a3.86 3.86 0 013.86-3.859h5.146a3.86 3.86 0 013.86 3.86V19z" stroke="#000" stroke-linecap="square"/></svg><svg fill="none" viewBox="0 0 25 25" id="rubl-icon" xmlns="http://www.w3.org/2000/svg"><path d="M14.069 6.276h-3.923a.732.732 0 00-.732.732v5.544h-.837a.732.732 0 100 1.465h.837v1.673h-.837a.732.732 0 100 1.465h.837v1.621a.732.732 0 001.465 0v-1.621h3.19a.732.732 0 100-1.465h-3.19v-1.673h3.19a3.875 3.875 0 003.87-3.87c0-2.187-1.78-3.871-3.87-3.871zm0 6.276h-3.19V7.741h3.19a2.403 2.403 0 012.406 2.405 2.408 2.408 0 01-2.406 2.406z" fill="#000"/><path d="M12.5 0C5.607 0 0 5.607 0 12.5 0 19.392 5.607 25 12.5 25 19.392 25 25 19.392 25 12.5 25 5.607 19.392 0 12.5 0zm0 23.535c-6.085 0-11.035-4.95-11.035-11.035S6.415 1.465 12.5 1.465 23.535 6.415 23.535 12.5 18.585 23.535 12.5 23.535z" fill="#000"/></svg><svg fill="none" viewBox="0 0 16 16" id="search-icon" xmlns="http://www.w3.org/2000/svg"><path d="M15 15l-4-4m-4 2A6 6 0 117 1a6 6 0 010 12z" stroke="#000"/></svg><svg fill="none" viewBox="0 0 16 16" id="stock" xmlns="http://www.w3.org/2000/svg"><path d="M5.5 6h1m3 4h1m0-4.5l-5 5m1.801-9.21L6.172 2.417a.988.988 0 01-.698.29H3.696a.988.988 0 00-.988.988v1.778a.988.988 0 01-.29.698L1.29 7.302a.988.988 0 000 1.397l1.13 1.129c.185.185.289.436.289.698v1.778c0 .546.442.988.988.988h1.778c.262 0 .513.104.698.29l1.13 1.129a.988.988 0 001.397 0l1.129-1.13a.988.988 0 01.698-.289h1.778a.988.988 0 00.988-.988v-1.778c0-.262.104-.513.29-.698l1.129-1.13a.988.988 0 000-1.397l-1.13-1.129a.988.988 0 01-.289-.698V3.696a.988.988 0 00-.988-.988h-1.778a.988.988 0 01-.698-.29L8.698 1.29a.988.988 0 00-1.397 0z" stroke="#E92D2D"/></svg><svg fill="none" viewBox="0 0 22 19" id="wishlist-icon" xmlns="http://www.w3.org/2000/svg"><path d="M10.917 18l-.354.354a.5.5 0 00.707 0L10.917 18zm-8.45-8.45l-.354.354.354-.354zM9.55 2.467l-.353.354.353-.354zm1.367 1.366l-.354.354a.5.5 0 00.707 0l-.353-.354zm1.366-1.366l-.354-.354.354.354zm-1.013 15.18l-8.45-8.45-.707.707 8.45 8.45.707-.708zm7.743-8.45l-8.45 8.45.707.707 8.45-8.45-.707-.707zM9.197 2.82l1.366 1.366.707-.707-1.366-1.367-.707.708zm2.073 1.366l1.367-1.366-.708-.708-1.366 1.367.707.707zM15.825.5c-1.461 0-2.862.58-3.896 1.613l.707.708A4.509 4.509 0 0115.825 1.5v-1zm4.508 5.509a4.509 4.509 0 01-1.32 3.188l.707.707a5.509 5.509 0 001.613-3.895h-1zm1 0A5.509 5.509 0 0015.825.5v1a4.509 4.509 0 014.508 4.509h1zM6.01 1.5c1.195 0 2.342.475 3.188 1.32l.707-.707A5.509 5.509 0 006.009.5v1zM1.5 6.009A4.509 4.509 0 016.009 1.5v-1A5.509 5.509 0 00.5 6.009h1zm1.32 3.188A4.509 4.509 0 011.5 6.009h-1c0 1.46.58 2.862 1.613 3.895l.708-.707z" fill="#000"/></svg></svg>